<svg width="14" height="14" viewBox="0 0 14 14" fill="none" xmlns="http://www.w3.org/2000/svg">
<path fill-rule="evenodd" clip-rule="evenodd" d="M5.93074 1.28395C6.33601 0.349362 7.66139 0.349361 8.06665 1.28395L9.29259 4.11107L12.3602 4.40338C13.3743 4.50001 13.7838 5.76052 13.0202 6.43476L10.7103 8.47433L11.3802 11.4821C11.6017 12.4764 10.5295 13.2555 9.65225 12.7376L6.9987 11.171L4.34515 12.7376C3.46794 13.2555 2.39569 12.4764 2.61716 11.4821L3.28709 8.47433L0.977173 6.43476C0.213564 5.76052 0.623127 4.50001 1.63721 4.40338L4.7048 4.11108L5.93074 1.28395ZM8.22464 4.57418L6.9987 1.74705L5.77276 4.57418C5.60409 4.96315 5.23727 5.22965 4.81522 5.26987L1.74763 5.56218L4.05755 7.60175C4.37536 7.88236 4.51547 8.31357 4.42329 8.7274L3.75336 11.7352L6.40691 10.1686C6.772 9.95304 7.2254 9.95304 7.59049 10.1686L10.244 11.7352L9.5741 8.7274C9.48193 8.31357 9.62204 7.88236 9.93985 7.60175L12.2498 5.56218L9.18217 5.26987C8.76012 5.22965 8.39331 4.96315 8.22464 4.57418Z" fill="#B3B7BC"/>
</svg>
