<svg width="20" height="18" viewBox="0 0 20 18" fill="none" xmlns="http://www.w3.org/2000/svg">
<path fill-rule="evenodd" clip-rule="evenodd" d="M10.001 15.5894C6.16847 13.4065 4.03092 11.2369 2.99728 9.35451C1.93936 7.42785 2.03166 5.80512 2.61871 4.65342C3.82535 2.28614 7.25668 1.52916 9.34732 4.17331L10.001 5.00002L10.6547 4.17335C12.7457 1.52909 16.1772 2.2862 17.3838 4.65342C17.9708 5.80511 18.0631 7.42782 17.0051 9.35449C15.9714 11.2369 13.8337 13.4065 10.001 15.5894ZM10.001 2.42157C7.06004 -0.373102 2.72139 0.781932 1.13381 3.89654C0.262528 5.60588 0.250626 7.81515 1.53637 10.1567C2.8107 12.4775 5.35145 14.9271 9.59789 17.2742L10.001 17.497L10.4041 17.2742C14.6507 14.9271 17.1916 12.4775 18.466 10.1567C19.7518 7.81518 19.74 5.6059 18.8687 3.89654C17.2811 0.781873 12.9423 -0.37306 10.001 2.42157Z" fill="#424551"/>
</svg>
