<svg width="14" height="15" viewBox="0 0 14 15" fill="none" xmlns="http://www.w3.org/2000/svg">
<path fill-rule="evenodd" clip-rule="evenodd" d="M7.52152 2.28077C7.17922 2.18809 6.81843 2.18809 6.47613 2.28077C6.11977 2.37726 5.77418 2.63005 4.78864 3.39657L3.05531 4.74472C2.42101 5.23806 2.20806 5.41103 2.05752 5.61456C1.91286 5.81015 1.8051 6.03049 1.73952 6.26476C1.67129 6.50853 1.66549 6.78283 1.66549 7.58639V11.9996C1.66549 12.5133 1.67273 12.6224 1.6942 12.6932C1.75883 12.9062 1.92557 13.073 2.13864 13.1376C2.20942 13.1591 2.31847 13.1663 2.83216 13.1663H3.24883C3.33412 13.1663 3.35265 13.1661 3.36487 13.1655C3.70734 13.1487 3.9812 12.8748 3.99803 12.5323C3.99863 12.5201 3.99883 12.5016 3.99883 12.4163V10.4996C3.99883 8.84278 5.34197 7.49963 6.99883 7.49963C8.65568 7.49963 9.99883 8.84278 9.99883 10.4996V12.4163C9.99883 12.5016 9.99903 12.5201 9.99963 12.5323C10.0165 12.8748 10.2903 13.1487 10.6328 13.1655C10.645 13.1661 10.6635 13.1663 10.7488 13.1663H11.1655C11.6792 13.1663 11.7882 13.1591 11.859 13.1376C12.0721 13.073 12.2388 12.9062 12.3035 12.6932C12.3249 12.6224 12.3322 12.5133 12.3322 11.9996V7.58639C12.3322 6.78283 12.3264 6.50853 12.2581 6.26476C12.1926 6.03049 12.0848 5.81015 11.9401 5.61456C11.7896 5.41103 11.5766 5.23806 10.9423 4.74472L9.20901 3.39657C8.22348 2.63005 7.87788 2.37726 7.52152 2.28077ZM6.12767 0.99378C6.69817 0.839313 7.29948 0.839313 7.86998 0.99378C8.51884 1.16946 9.08817 1.61272 9.91416 2.25581C9.95144 2.28484 9.98924 2.31427 10.0276 2.3441L11.7609 3.69225C11.7849 3.71089 11.8085 3.72926 11.8319 3.74739C12.3681 4.16417 12.739 4.45248 13.0121 4.8217C13.2532 5.14768 13.4328 5.51491 13.5421 5.90536C13.6659 6.34759 13.6657 6.81741 13.6655 7.49656C13.6655 7.5261 13.6655 7.55604 13.6655 7.58639V11.9996C13.6655 12.0279 13.6655 12.0558 13.6656 12.0835C13.666 12.4644 13.6664 12.7933 13.5794 13.0802C13.3855 13.7194 12.8853 14.2196 12.2461 14.4135C11.9592 14.5005 11.6302 14.5002 11.2494 14.4997C11.2217 14.4997 11.1937 14.4996 11.1655 14.4996L10.7349 14.4996C10.6714 14.4996 10.6169 14.4997 10.5674 14.4972C9.53995 14.4468 8.71838 13.6252 8.6679 12.5978C8.66547 12.5482 8.66548 12.4937 8.66549 12.4303L8.66549 10.4996C8.66549 9.57916 7.9193 8.83297 6.99883 8.83297C6.07835 8.83297 5.33216 9.57916 5.33216 10.4996L5.33216 12.4303C5.33218 12.4937 5.33219 12.5482 5.32975 12.5978C5.27928 13.6252 4.4577 14.4468 3.4303 14.4972C3.38074 14.4997 3.32623 14.4996 3.26279 14.4996L2.83216 14.4996C2.80392 14.4996 2.77596 14.4997 2.74828 14.4997C2.36743 14.5002 2.03849 14.5005 1.75159 14.4135C1.11239 14.2196 0.612181 13.7194 0.418281 13.0802C0.331252 12.7933 0.331643 12.4644 0.332095 12.0835C0.332128 12.0558 0.332162 12.0279 0.332162 11.9996V7.58639C0.332162 7.55604 0.332151 7.5261 0.332142 7.49655C0.331913 6.81741 0.331755 6.34759 0.455541 5.90536C0.564831 5.51491 0.744438 5.14768 0.98554 4.8217C1.25862 4.45248 1.62957 4.16416 2.1658 3.74739C2.18912 3.72926 2.21276 3.71089 2.23672 3.69225L3.97006 2.3441C4.00841 2.31427 4.04622 2.28483 4.0835 2.25581C4.90949 1.61272 5.47881 1.16946 6.12767 0.99378Z" fill="#424551"/>
</svg>
