<svg width="48" height="26" viewBox="0 0 48 26" fill="none" xmlns="http://www.w3.org/2000/svg">
<rect x="0.5" y="0.5" width="47" height="25" rx="1.5" fill="#F4F5F7"/>
<path d="M37.4445 23.4863V23.5423H37.4967C37.5065 23.5425 37.5162 23.54 37.5247 23.5352C37.5281 23.5328 37.5309 23.5295 37.5327 23.5258C37.5345 23.5221 37.5354 23.5179 37.5352 23.5138C37.5354 23.5097 37.5345 23.5056 37.5327 23.502C37.5309 23.4983 37.5281 23.4952 37.5247 23.4929C37.5163 23.4878 37.5066 23.4853 37.4967 23.4858H37.4445V23.4863ZM37.4973 23.4467C37.5197 23.4453 37.5418 23.4518 37.56 23.4649C37.5673 23.4709 37.5731 23.4785 37.5769 23.4871C37.5807 23.4957 37.5824 23.5051 37.582 23.5145C37.5823 23.5226 37.5809 23.5306 37.5779 23.5381C37.5748 23.5456 37.5702 23.5524 37.5643 23.558C37.5503 23.5702 37.5327 23.5775 37.5142 23.5788L37.5842 23.6586H37.5303L37.4659 23.5794H37.4451V23.6586H37.4V23.4468H37.498L37.4973 23.4467ZM37.4833 23.7317C37.5069 23.7319 37.5304 23.7272 37.552 23.7177C37.5729 23.7087 37.5919 23.6958 37.608 23.6798C37.6241 23.6637 37.637 23.6447 37.646 23.6238C37.6643 23.5794 37.6643 23.5296 37.646 23.4852C37.6369 23.4643 37.624 23.4454 37.608 23.4292C37.5919 23.4131 37.5729 23.4003 37.552 23.3913C37.5302 23.3823 37.5069 23.3779 37.4833 23.3781C37.4593 23.3779 37.4355 23.3824 37.4133 23.3913C37.3919 23.4001 37.3725 23.413 37.356 23.4292C37.3313 23.4546 37.3145 23.4867 37.3079 23.5216C37.3012 23.5564 37.305 23.5925 37.3187 23.6252C37.3272 23.6462 37.3399 23.6652 37.356 23.6812C37.3725 23.6974 37.392 23.7103 37.4133 23.7191C37.4354 23.7286 37.4592 23.7333 37.4833 23.7331V23.7317ZM37.4833 23.3272C37.5448 23.3271 37.6039 23.3512 37.6478 23.3944C37.6689 23.4151 37.6858 23.4397 37.6973 23.467C37.7093 23.495 37.7155 23.5251 37.7155 23.5555C37.7155 23.586 37.7093 23.6161 37.6973 23.6441C37.6855 23.6712 37.6687 23.6958 37.6478 23.7167C37.6263 23.7373 37.6013 23.7539 37.574 23.7657C37.5453 23.7779 37.5145 23.7841 37.4833 23.7839C37.4518 23.7842 37.4205 23.778 37.3915 23.7657C37.3638 23.7542 37.3386 23.7376 37.3171 23.7167C37.2962 23.6951 37.2796 23.6696 37.2683 23.6417C37.2563 23.6137 37.2501 23.5836 37.2501 23.5532C37.2501 23.5227 37.2563 23.4926 37.2683 23.4646C37.2798 23.4374 37.2967 23.4127 37.3178 23.392C37.339 23.3708 37.3643 23.3541 37.3922 23.343C37.4212 23.3307 37.4525 23.3246 37.484 23.3248L37.4833 23.3272ZM16.0491 22.5092C16.0491 22.1054 16.3136 21.7736 16.746 21.7736C17.1593 21.7736 17.4381 22.0911 17.4381 22.5092C17.4381 22.9274 17.1593 23.2449 16.746 23.2449C16.3136 23.2449 16.0491 22.9131 16.0491 22.5092ZM17.9092 22.5092V21.36H17.4096V21.64C17.2511 21.4331 17.0108 21.3033 16.6839 21.3033C16.04 21.3033 15.5346 21.8083 15.5346 22.5098C15.5346 23.2113 16.0397 23.7163 16.6839 23.7163C17.0106 23.7163 17.2511 23.5864 17.4096 23.3797V23.6586H17.9086V22.5092H17.9092ZM34.79 22.5092C34.79 22.1054 35.0546 21.7736 35.4871 21.7736C35.9008 21.7736 36.1792 22.0911 36.1792 22.5092C36.1792 22.9274 35.9008 23.2449 35.4871 23.2449C35.0547 23.2449 34.79 22.9131 34.79 22.5092ZM36.6507 22.5092V20.4375H36.1507V21.64C35.9922 21.4331 35.7518 21.3033 35.425 21.3033C34.7811 21.3033 34.2757 21.8083 34.2757 22.5098C34.2757 23.2113 34.7808 23.7163 35.425 23.7163C35.7518 23.7163 35.9922 23.5864 36.1507 23.3797V23.6586H36.6507V22.5092ZM24.1099 21.75C24.4318 21.75 24.6386 21.9518 24.6913 22.3072H23.4993C23.5526 21.9755 23.754 21.75 24.11 21.75H24.1099ZM24.1199 21.302C23.4466 21.302 22.9756 21.792 22.9756 22.5085C22.9756 23.2391 23.4655 23.7151 24.1534 23.7151C24.4994 23.7151 24.8164 23.6287 25.0952 23.3931L24.8504 23.0228C24.6578 23.1768 24.4125 23.2632 24.1819 23.2632C23.86 23.2632 23.5669 23.1141 23.4948 22.7005H25.2007C25.2056 22.6383 25.2107 22.5756 25.2107 22.5084C25.2056 21.7921 24.7627 21.3019 24.1197 21.3019L24.1199 21.302ZM30.1515 22.5084C30.1515 22.1046 30.4161 21.7728 30.8485 21.7728C31.2617 21.7728 31.5406 22.0903 31.5406 22.5084C31.5406 22.9265 31.2617 23.244 30.8485 23.244C30.4161 23.244 30.1514 22.9123 30.1514 22.5084H30.1515ZM32.0115 22.5084V21.36H31.5122V21.64C31.3531 21.4331 31.1134 21.3033 30.7865 21.3033C30.1426 21.3033 29.6372 21.8083 29.6372 22.5098C29.6372 23.2113 30.1423 23.7163 30.7865 23.7163C31.1134 23.7163 31.3531 23.5864 31.5122 23.3797V23.6586H32.0116V22.5092L32.0115 22.5084ZM27.3302 22.5084C27.3302 23.2054 27.8154 23.7149 28.5559 23.7149C28.9019 23.7149 29.1325 23.6379 29.3818 23.441L29.1418 23.0371C28.9543 23.1719 28.7573 23.244 28.5399 23.244C28.1411 23.2391 27.8478 22.9507 27.8478 22.5084C27.8478 22.0661 28.1411 21.7778 28.5399 21.7728C28.7567 21.7728 28.9537 21.8449 29.1418 21.9797L29.3818 21.5758C29.132 21.3789 28.9015 21.3019 28.5559 21.3019C27.8154 21.3019 27.3302 21.8113 27.3302 22.5084ZM33.7708 21.3019C33.4826 21.3019 33.2949 21.4367 33.1651 21.6386V21.36H32.67V23.6574H33.1701V22.3695C33.1701 21.9893 33.3335 21.7781 33.6601 21.7781C33.767 21.7766 33.8732 21.7962 33.9725 21.8359L34.1265 21.365C34.0159 21.3215 33.8717 21.3023 33.7705 21.3023L33.7708 21.3019ZM20.3792 21.5427C20.1388 21.3842 19.8076 21.3023 19.4423 21.3023C18.8602 21.3023 18.4855 21.5813 18.4855 22.0378C18.4855 22.4124 18.7645 22.6435 19.2782 22.7156L19.5142 22.7492C19.7882 22.7877 19.9175 22.8598 19.9175 22.9895C19.9175 23.1672 19.7355 23.2685 19.3938 23.2685C19.0478 23.2685 18.7981 23.1579 18.6297 23.0282L18.3949 23.4177C18.6689 23.6196 19.0149 23.7159 19.3896 23.7159C20.0531 23.7159 20.4377 23.4035 20.4377 22.966C20.4377 22.5622 20.135 22.3509 19.635 22.2788L19.3996 22.2447C19.1833 22.2167 19.01 22.1731 19.01 22.0192C19.01 21.8512 19.1734 21.7501 19.4474 21.7501C19.7407 21.7501 20.0246 21.8607 20.1637 21.9471L20.38 21.5432L20.3792 21.5427ZM26.8255 21.3027C26.5373 21.3027 26.3496 21.4375 26.2204 21.6394V21.36H25.7253V23.6574H26.2249V22.3695C26.2249 21.9893 26.3882 21.7781 26.7148 21.7781C26.8217 21.7766 26.9279 21.7962 27.0272 21.8359L27.1812 21.365C27.0706 21.3215 26.9265 21.3023 26.8253 21.3023L26.8255 21.3027ZM22.5622 21.36H21.7453V20.663H21.2402V21.36H20.7742V21.8166H21.2402V22.8647C21.2402 23.3977 21.4471 23.7152 22.0381 23.7152C22.2549 23.7152 22.5047 23.648 22.6631 23.5376L22.5188 23.1098C22.3697 23.1961 22.2064 23.2397 22.0765 23.2397C21.8267 23.2397 21.7453 23.0857 21.7453 22.8551V21.817H22.5622V21.36ZM15.0928 23.6579V22.2161C15.0928 21.6731 14.7468 21.3078 14.189 21.3029C13.8957 21.298 13.5932 21.3892 13.3814 21.7116C13.2229 21.4569 12.9732 21.3029 12.6221 21.3029C12.3767 21.3029 12.137 21.375 11.9492 21.644V21.36H11.4492V23.6574H11.9532V22.3835C11.9532 21.9847 12.1743 21.7728 12.5159 21.7728C12.8477 21.7728 13.0155 21.9891 13.0155 22.3785V23.6571H13.5206V22.3833C13.5206 21.9844 13.7511 21.7725 14.0827 21.7725C14.4239 21.7725 14.5867 21.9888 14.5867 22.3782V23.6568L15.0928 23.6579Z" fill="#231F20"/>
<path d="M37.7331 16.0157V15.6797H37.6456L37.5444 15.9102L37.4437 15.6797H37.356V16.0157H37.4181V15.7626L37.5127 15.9809H37.5771L37.6718 15.762V16.0157H37.7334H37.7331ZM37.178 16.0157V15.7372H37.29V15.6805H37.0039V15.7372H37.1159V16.0157H37.1775H37.178Z" fill="#F79410"/>
<path d="M27.786 17.456H20.2148V3.84961H27.7861L27.786 17.456Z" fill="#FF5F00"/>
<path d="M20.6947 10.6533C20.6947 7.89329 21.987 5.43463 23.9994 3.85017C22.4761 2.64904 20.5921 1.99714 18.6522 2.00001C13.8736 2.00001 10 5.87418 10 10.6533C10 15.4325 13.8736 19.3067 18.6522 19.3067C20.5921 19.3096 22.4763 18.6577 23.9996 17.4565C21.9873 15.8723 20.6947 13.4135 20.6947 10.6533Z" fill="#EB001B"/>
<path d="M38.0003 10.6533C38.0003 15.4325 34.1267 19.3067 29.3481 19.3067C27.4079 19.3095 25.5236 18.6576 24 17.4565C26.013 15.872 27.3053 13.4135 27.3053 10.6533C27.3053 7.89316 26.013 5.43463 24 3.85016C25.5236 2.64907 27.4078 1.99719 29.3479 2.00001C34.1265 2.00001 38.0001 5.87418 38.0001 10.6533" fill="#F79E1B"/>
<rect x="0.5" y="0.5" width="47" height="25" rx="1.5" stroke="#D7DADD"/>
</svg>
