<svg width="48" height="26" viewBox="0 0 48 26" fill="none" xmlns="http://www.w3.org/2000/svg">
<rect x="0.5" y="0.5" width="47" height="25" rx="1.5" fill="#F4F5F7"/>
<path d="M21.703 18.8H18.6848L20.5711 7.20715H23.5897L21.703 18.8ZM16.1457 7.20715L13.2682 15.1808L12.9278 13.4638L12.9281 13.4644L11.9125 8.25095C11.9125 8.25095 11.7897 7.20715 10.4807 7.20715H5.72379L5.66797 7.40344C5.66797 7.40344 7.12266 7.7061 8.82511 8.72851L11.4473 18.8003H14.5921L19.394 7.20715H16.1457ZM39.8855 18.8H42.6569L40.2406 7.20684H37.8143C36.6939 7.20684 36.4211 8.07078 36.4211 8.07078L31.9196 18.8H35.0659L35.6951 17.078H39.532L39.8855 18.8ZM36.5643 14.6992L38.1502 10.3609L39.0423 14.6992H36.5643ZM32.1556 9.99496L32.5863 7.50546C32.5863 7.50546 31.2572 7 29.8717 7C28.3739 7 24.8171 7.65462 24.8171 10.8378C24.8171 13.8328 28.9916 13.87 28.9916 15.4431C28.9916 17.0163 25.2472 16.7344 24.0114 15.7424L23.5627 18.3454C23.5627 18.3454 24.9104 19 26.9695 19C29.0292 19 32.1364 17.9336 32.1364 15.031C32.1364 12.0168 27.9243 11.7362 27.9243 10.4257C27.9246 9.11489 30.864 9.28328 32.1556 9.99496Z" fill="#2566AF"/>
<path d="M12.9281 13.4643L11.9125 8.25083C11.9125 8.25083 11.7897 7.20703 10.4807 7.20703H5.72379L5.66797 7.40333C5.66797 7.40333 7.95434 7.87716 10.1474 9.65249C12.2443 11.3494 12.9281 13.4643 12.9281 13.4643Z" fill="#E6A540"/>
<rect x="0.5" y="0.5" width="47" height="25" rx="1.5" stroke="#D7DADD"/>
</svg>
